<svg xmlns="http://www.w3.org/2000/svg" viewBox="0 0 256 256" role="img" aria-label="Eneclez Watch Party">
  <defs>
    <linearGradient id="shell" x1="35" y1="20" x2="226" y2="236" gradientUnits="userSpaceOnUse">
      <stop stop-color="#67e0bd"/>
      <stop offset=".5" stop-color="#43c6ac"/>
      <stop offset="1" stop-color="#f4b942"/>
    </linearGradient>
    <linearGradient id="glass" x1="64" y1="54" x2="202" y2="184" gradientUnits="userSpaceOnUse">
      <stop stop-color="#202838"/>
      <stop offset="1" stop-color="#0d121c"/>
    </linearGradient>
    <linearGradient id="play" x1="101" y1="86" x2="159" y2="150" gradientUnits="userSpaceOnUse">
      <stop stop-color="#f7fbff"/>
      <stop offset="1" stop-color="#dce9ff"/>
    </linearGradient>
    <filter id="softShadow" x="-25%" y="-25%" width="150%" height="160%">
      <feDropShadow dx="0" dy="18" stdDeviation="18" flood-color="#000" flood-opacity=".36"/>
    </filter>
    <filter id="innerGlow" x="-20%" y="-20%" width="140%" height="140%">
      <feGaussianBlur stdDeviation="7" result="blur"/>
      <feComposite in="SourceGraphic" in2="blur" operator="over"/>
    </filter>
  </defs>
  <rect width="256" height="256" rx="58" fill="#080b10"/>
  <rect x="14" y="14" width="228" height="228" rx="52" fill="url(#shell)"/>
  <path d="M46 59c0-19.9 16.1-36 36-36h92c19.9 0 36 16.1 36 36v98c0 19.9-16.1 36-36 36H82c-19.9 0-36-16.1-36-36V59Z" fill="url(#glass)" filter="url(#softShadow)"/>
  <path d="M72 59h112c5.5 0 10 4.5 10 10v72c0 5.5-4.5 10-10 10H72c-5.5 0-10-4.5-10-10V69c0-5.5 4.5-10 10-10Z" fill="#121923"/>
  <path d="M74 61h108c5.5 0 10 4.5 10 10v12H64V71c0-5.5 4.5-10 10-10Z" fill="#1f2938" opacity=".85"/>
  <circle cx="78" cy="72" r="4" fill="#67e0bd"/>
  <circle cx="92" cy="72" r="4" fill="#f4b942"/>
  <circle cx="106" cy="72" r="4" fill="#ef476f"/>
  <path d="M113 95v42c0 5.8 6.4 9.3 11.3 6.1l34.6-21a7.2 7.2 0 0 0 0-12.2l-34.6-21A7.4 7.4 0 0 0 113 95Z" fill="url(#play)" filter="url(#innerGlow)"/>
  <path d="M69 168h76" stroke="#67e0bd" stroke-width="10" stroke-linecap="round" opacity=".9"/>
  <path d="M160 168h26" stroke="#f4b942" stroke-width="10" stroke-linecap="round" opacity=".9"/>
  <path d="M71 196h78" stroke="#07110f" stroke-width="16" stroke-linecap="round" opacity=".42"/>
  <path d="M170 194c17 0 31-11.4 31-25.5S187 143 170 143s-31 11.4-31 25.5c0 5 1.8 9.7 4.9 13.6l-5.4 16.9 18.4-7.2c4 1.4 8.4 2.2 13.1 2.2Z" fill="#0d121c" opacity=".8"/>
  <path d="M158 167h25M158 179h16" stroke="#f6f7fb" stroke-width="7" stroke-linecap="round"/>
  <path d="M222 72c-13.6-22.9-37.6-38-64.9-39.9" stroke="#f7fbff" stroke-width="8" stroke-linecap="round" opacity=".38"/>
  <path d="M34 185c13.8 22.6 37.8 37.4 65.1 39" stroke="#07110f" stroke-width="8" stroke-linecap="round" opacity=".24"/>
</svg>
