<svg xmlns="http://www.w3.org/2000/svg" viewBox="0 0 256 256" role="img" aria-label="Eneclez Watch Party">
  <defs>
    <linearGradient id="bg" x1="38" y1="24" x2="218" y2="232" gradientUnits="userSpaceOnUse">
      <stop stop-color="#43c6ac"/>
      <stop offset="1" stop-color="#f4b942"/>
    </linearGradient>
    <linearGradient id="screen" x1="72" y1="74" x2="184" y2="170" gradientUnits="userSpaceOnUse">
      <stop stop-color="#111722"/>
      <stop offset="1" stop-color="#1d2330"/>
    </linearGradient>
    <filter id="shadow" x="-20%" y="-20%" width="140%" height="150%">
      <feDropShadow dx="0" dy="16" stdDeviation="16" flood-color="#000" flood-opacity=".28"/>
    </filter>
  </defs>
  <rect width="256" height="256" rx="56" fill="#0b0d12"/>
  <rect x="18" y="18" width="220" height="220" rx="48" fill="url(#bg)"/>
  <path d="M54 64c0-16 13-29 29-29h90c16 0 29 13 29 29v77c0 16-13 29-29 29H83c-16 0-29-13-29-29V64Z" fill="url(#screen)" filter="url(#shadow)"/>
  <path d="M83 57h90c4 0 7 3 7 7v77c0 4-3 7-7 7H83c-4 0-7-3-7-7V64c0-4 3-7 7-7Z" fill="#151922"/>
  <path d="M116 90v29c0 4 5 7 9 5l28-15c4-2 4-8 0-10l-28-15c-4-2-9 1-9 6Z" fill="#f6f7fb"/>
  <path d="M87 194h82" stroke="#07110f" stroke-width="18" stroke-linecap="round" opacity=".42"/>
  <path d="M103 194h50" stroke="#07110f" stroke-width="8" stroke-linecap="round" opacity=".45"/>
</svg>
